# xmcd
#
# Track frame offsets:
#	150
#	19067
#	36815
#	56570
#	82025
#	109895
#	129417
#	145925
#	166285
#	190440
#	211875
#	231720
#
# Disc length: 3329 seconds
#
# Revision: 3
# Processed by: cddbd v1.5.2PL0 Copyright (c) Steve Scherf et al.
# Submitted via: audiograbber 1.83.01
#
DISCID=ad0cff0c
DTITLE=Various Artist - Rollin' Into Memphis: Songs of John Hiatt
DYEAR=2000
DGENRE=Blues
TTITLE0=C.J. Chenier - Falling Up
TTITLE1=Terrance Simien - It Hasn't Happened Yet
TTITLE2=Irma Thomas - Old Habits Are Hard to Break
TTITLE3=Odetta - Listening to Old Voices
TTITLE4=Kenny Neal - Love Like Blood
TTITLE5=Kris Wiley - James Cotton - Wrote It Down
TTITLE6=Colin Linden - The River Knows Your Name
TTITLE7=Tab Benoit - Raful Neal - Feels Like Rain
TTITLE8=Andrea Re - Thirty Years Of Tears
TTITLE9=Chris Smither - Real Fine Love
TTITLE10=Cliff Eberhardt - Back of My Mind
TTITLE11=Patty Larkin - Have a Little Faith in Me
EXTD=
EXTT0=
EXTT1=
EXTT2=
EXTT3=
EXTT4=
EXTT5=
EXTT6=
EXTT7=
EXTT8=
EXTT9=
EXTT10=
EXTT11=
PLAYORDER=
